<svg xmlns="http://www.w3.org/2000/svg" width="100" height="100" enable-background="new 0 0 100 100" viewBox="0 0 100 100" id="book">
  <path fill="#DD3636" d="M74.567,84.895c0,2.025-1.643,3.668-3.668,3.668H24.6c-2.026,0-3.668-1.643-3.668-3.668V18.105
			c0-2.025,1.642-3.668,3.668-3.668h46.3c2.025,0,3.668,1.643,3.668,3.668V84.895z"></path>
  <path d="M70.899,89.563H24.6c-2.574,0-4.668-2.094-4.668-4.668V18.105c0-2.574,2.094-4.668,4.668-4.668h46.3
			c2.574,0,4.668,2.094,4.668,4.668v66.789C75.567,87.468,73.473,89.563,70.899,89.563z M24.6,15.438
			c-1.471,0-2.668,1.197-2.668,2.668v66.789c0,1.471,1.197,2.668,2.668,2.668h46.3c1.471,0,2.668-1.197,2.668-2.668V18.105
			c0-1.471-1.197-2.668-2.668-2.668H24.6z"></path>
  <path d="M74.899,86.563c-0.552,0-1-0.448-1-1s0.448-1,1-1c1.471,0,2.668-1.197,2.668-2.668V15.105
			c0-1.471-1.197-2.668-2.668-2.668H28.6c-1.51,0-6.069,3-6.254,4.116c-0.09,0.544-0.602,0.913-1.15,0.823
			c-0.545-0.09-0.913-0.605-0.823-1.15c0.392-2.363,6.063-5.789,8.227-5.789h46.3c2.574,0,4.668,2.094,4.668,4.668v66.789
			C79.567,84.468,77.473,86.563,74.899,86.563z"></path>
  <path d="M29.363,89.563c-0.552,0-1-0.448-1-1V14.438c0-0.552,0.448-1,1-1s1,0.448,1,1v74.125
			C30.363,89.115,29.915,89.563,29.363,89.563z"></path>
  <rect width="23.147" height="9.542" x="39.499" y="25.12" fill="#F4F4F4"></rect>
  <path d="M62.646,35.661H39.499c-0.552,0-1-0.448-1-1V25.12c0-0.552,0.448-1,1-1h23.147c0.552,0,1,0.448,1,1v9.542
			C63.646,35.213,63.198,35.661,62.646,35.661z M40.499,33.661h21.147V26.12H40.499V33.661z"></path>
</svg>
